<?xml version="1.0" encoding="UTF-8"?>
<svg version="1.1" xmlns="http://www.w3.org/2000/svg" width="48" height="48">
<path d="M0 0 C2 2 2 2 2.125 5.125 C2.08375 6.07375 2.0425 7.0225 2 8 C-2.62503244 9.14521712 -7.25150047 10.28437087 -11.87939453 11.41796875 C-13.45304474 11.80433148 -15.02629222 12.19233846 -16.59912109 12.58203125 C-18.8619121 13.14236863 -21.12609275 13.6967475 -23.390625 14.25 C-24.09181458 14.42499023 -24.79300415 14.59998047 -25.51544189 14.78027344 C-28.81811607 15.58128802 -31.57284955 16 -35 16 C-34.67 22.93 -34.34 29.86 -34 37 C-22.78 37 -11.56 37 0 37 C0.33 30.4 0.66 23.8 1 17 C-7.58 17 -16.16 17 -25 17 C-25 16.34 -25 15.68 -25 15 C-15.76 15 -6.52 15 3 15 C3.04125 18.75375 3.0825 22.5075 3.125 26.375 C3.14320801 27.55755371 3.16141602 28.74010742 3.18017578 29.95849609 C3.1851709 30.88742676 3.19016602 31.81635742 3.1953125 32.7734375 C3.21102295 34.20308838 3.21102295 34.20308838 3.22705078 35.66162109 C3 38 3 38 1 40 C-1.70135323 40.19973733 -4.29797211 40.27981573 -7 40.265625 C-7.79148437 40.26753845 -8.58296875 40.2694519 -9.3984375 40.27142334 C-11.0729199 40.27278518 -12.74741285 40.26908882 -14.421875 40.26074219 C-16.98982381 40.2500424 -19.55707303 40.26063725 -22.125 40.2734375 C-23.75000155 40.2721159 -25.37500266 40.26955351 -27 40.265625 C-28.15628906 40.27169769 -28.15628906 40.27169769 -29.3359375 40.27789307 C-34.77007868 40.22992132 -34.77007868 40.22992132 -37 38 C-37.31884766 35.11083984 -37.31884766 35.11083984 -37.4140625 31.4609375 C-37.45273437 30.15898438 -37.49140625 28.85703125 -37.53125 27.515625 C-37.56270763 26.13542138 -37.59395491 24.75521296 -37.625 23.375 C-37.66317934 21.98695459 -37.70223105 20.59893289 -37.7421875 19.2109375 C-37.83672943 15.80742815 -37.92227897 12.40392835 -38 9 C-32.54134348 5.4385481 -26.96926607 4.2839374 -20.6875 2.8125 C-19.03331055 2.40354492 -19.03331055 2.40354492 -17.34570312 1.98632812 C-11.45128033 0.58222383 -6.06322478 -0.5473251 0 0 Z M-5 3 C-4.67 3.66 -4.34 4.32 -4 5 C-3.01 4.67 -2.02 4.34 -1 4 C-2.32 3.67 -3.64 3.34 -5 3 Z M-11 4 C-11.66 4.66 -12.32 5.32 -13 6 C-10.03 6.495 -10.03 6.495 -7 7 C-7.66 6.01 -8.32 5.02 -9 4 C-9.66 4 -10.32 4 -11 4 Z M-20 6 C-19.67 6.99 -19.34 7.98 -19 9 C-17.68 8.67 -16.36 8.34 -15 8 C-15.66 7.34 -16.32 6.68 -17 6 C-17.99 6 -18.98 6 -20 6 Z M-28 8 C-28 8.66 -28 9.32 -28 10 C-26.68 10.33 -25.36 10.66 -24 11 C-24 10.01 -24 9.02 -24 8 C-25.32 8 -26.64 8 -28 8 Z M-34 10 C-34.33 10.99 -34.66 11.98 -35 13 C-33.68 12.67 -32.36 12.34 -31 12 C-31.33 11.34 -31.66 10.68 -32 10 C-32.66 10 -33.32 10 -34 10 Z " fill="#000000" transform="translate(41,2)"/>
<path d="M0 0 C5.10314545 0 5.67544445 0.04103955 9.3125 3 C10.00988281 3.556875 10.70726562 4.11375 11.42578125 4.6875 C11.94527344 5.120625 12.46476562 5.55375 13 6 C12.60888843 8.40842385 12.2758363 9.71823174 10.546875 11.484375 C9.65742188 12.11085938 9.65742188 12.11085938 8.75 12.75 C8.16734375 13.17796875 7.5846875 13.6059375 6.984375 14.046875 C5 15 5 15 0 15 C0 10.05 0 5.1 0 0 Z M3 4 C3 6.31 3 8.62 3 11 C4.65 10.34 6.3 9.68 8 9 C8 8.01 8 7.02 8 6 C5.525 5.01 5.525 5.01 3 4 Z " fill="#000000" transform="translate(19,22)"/>
</svg>
