<?xml version="1.0" encoding="UTF-8"?>
<svg version="1.1" xmlns="http://www.w3.org/2000/svg" width="50" height="50">
<path d="M0 0 C2.57191052 2.19368839 3.15640923 3.58386408 4.125 6.8125 C4.1015625 10.14453125 4.1015625 10.14453125 3.75 13.625 C3.58371094 15.36716797 3.58371094 15.36716797 3.4140625 17.14453125 C3.31867187 18.02496094 3.22328125 18.90539062 3.125 19.8125 C2.465 19.8125 1.805 19.8125 1.125 19.8125 C0.795 22.4525 0.465 25.0925 0.125 27.8125 C2.25540939 28.0218161 2.25540939 28.0218161 3.9453125 26.34375 C7.69836863 23.70719444 11.72223834 24.04981688 16.125 24.8125 C19.24501504 26.50068449 21.51547471 28.59344941 23.125 31.8125 C23.64012617 35.90407355 24.06867269 40.04839546 22.078125 43.76953125 C19.68001226 46.66842636 17.72851712 48.61061835 13.953125 49.0859375 C6.13623631 49.39387554 6.13623631 49.39387554 2.5625 46.4375 C-1.19847845 42.38721552 -1.12650453 39.56204096 -1.49609375 34.22265625 C-1.74277079 31.55719973 -1.74277079 31.55719973 -3.875 28.8125 C-4.24655333 25.39420936 -4.3109717 23.49489048 -2.4375 20.5625 C-0.1559126 16.54690617 0.09394927 12.39248248 0.125 7.8125 C-0.565303 4.80968822 -0.565303 4.80968822 -2.5 3.5625 C-5.85333052 2.50355352 -8.47493475 3.10682608 -11.875 3.8125 C-13.72790352 5.66540352 -13.09158627 8.57874631 -13.125 11.0625 C-13.15078125 12.20203125 -13.1765625 13.3415625 -13.203125 14.515625 C-12.84483229 18.11561365 -11.85233696 19.84393986 -9.875 22.8125 C-9.37359743 26.32231802 -9.31258616 28.01574706 -11.375 30.9375 C-14.13731175 33.00923381 -16.91812405 34.39938284 -20.0703125 35.78515625 C-22.20525226 36.8218151 -22.20525226 36.8218151 -23.875 39.8125 C-16.615 39.8125 -9.355 39.8125 -1.875 39.8125 C-1.875 40.4725 -1.875 41.1325 -1.875 41.8125 C-10.125 41.8125 -18.375 41.8125 -26.875 41.8125 C-25.875 34.8125 -25.875 34.8125 -23.1875 32.5625 C-20.10253995 30.93270978 -17.02524516 29.31261674 -13.875 27.8125 C-14.205 25.1725 -14.535 22.5325 -14.875 19.8125 C-15.535 19.8125 -16.195 19.8125 -16.875 19.8125 C-16.95612454 17.22853321 -17.01554748 14.64712432 -17.0625 12.0625 C-17.08763672 11.33289062 -17.11277344 10.60328125 -17.13867188 9.8515625 C-17.18298412 6.60199814 -17.1103876 4.24855727 -15.55078125 1.359375 C-11.34358143 -2.52419407 -4.97308534 -2.05410047 0 0 Z M2.125 32.8125 C1.42652875 35.6521864 1.42652875 37.9728136 2.125 40.8125 C4.11421886 43.7963283 5.51002568 45.41526841 9.0625 46.2890625 C12.98563492 46.57140933 14.79612371 46.03175086 18.125 43.8125 C20.34425086 40.48362371 20.88390933 38.67313492 20.6015625 34.75 C19.72776841 31.19752568 18.1088283 29.80171886 15.125 27.8125 C9.30836797 26.38179615 5.51685094 27.72472359 2.125 32.8125 Z " fill="#000000" transform="translate(26.875,1.1875)"/>
<path d="M0 0 C0.66 0 1.32 0 2 0 C2 1.65 2 3.3 2 5 C3.65 5 5.3 5 7 5 C7 5.66 7 6.32 7 7 C5.35 7 3.7 7 2 7 C2 8.65 2 10.3 2 12 C1.34 12 0.68 12 0 12 C0 10.35 0 8.7 0 7 C-1.65 7 -3.3 7 -5 7 C-5 6.34 -5 5.68 -5 5 C-3.35 5 -1.7 5 0 5 C0 3.35 0 1.7 0 0 Z " fill="#000000" transform="translate(37,32)"/>
</svg>
