<?xml version="1.0" encoding="UTF-8"?>
<svg version="1.1" xmlns="http://www.w3.org/2000/svg" width="50" height="50">
<path d="M0 0 C2.85412654 1.73330002 5.31590718 3.59033844 7.375 6.25 C7.375 7.24 7.375 8.23 7.375 9.25 C3.47582777 8.67234485 1.36308735 6.71517206 -1.625 4.25 C-6.56880579 1.2018583 -12.01350795 1.66086698 -17.625 2.25 C-23.04181967 3.9708669 -26.38992629 7.77798635 -29.625 12.25 C-31.40744185 17.59732556 -31.64856669 24.00383135 -29.94140625 29.41796875 C-27.24380012 34.4885728 -23.07648573 38.43283809 -17.625 40.25 C-10.46113592 40.99291924 -5.08567098 40.82288919 0.8515625 36.5390625 C2.49967635 35.1806873 2.49967635 35.1806873 4.375 33.25 C5.365 33.25 6.355 33.25 7.375 33.25 C6.996318 35.89503642 6.59136083 37.04285633 4.6328125 38.91796875 C3.92898437 39.41941406 3.22515625 39.92085937 2.5 40.4375 C1.45199219 41.20126953 1.45199219 41.20126953 0.3828125 41.98046875 C-5.25146113 45.54299585 -12.22109705 44.74752853 -18.625 44.25 C-24.82931637 42.63317658 -29.16607859 38.54853884 -32.625 33.25 C-35.83230803 26.79144822 -35.78883954 18.67537788 -33.97265625 11.76953125 C-31.39453746 6.04898441 -26.90996285 1.88130808 -21.328125 -0.890625 C-14.7142082 -2.99331531 -6.32168409 -3.02393175 0 0 Z " fill="#000000" transform="translate(36.625,3.75)"/>
<path d="M0 0 C4.62983765 0.84729055 7.29394589 3.22069732 10 7 C10.30572272 10.05722717 9.57315346 11.28610175 7.6796875 13.64453125 C6.17859919 15.25499535 4.78457381 16.70818164 3 18 C2.01 18 1.02 18 0 18 C0.62388892 14.38144425 1.1709277 13.8290723 4 11 C-2.6 10.67 -9.2 10.34 -16 10 C-16 9.34 -16 8.68 -16 8 C-6.1 7.505 -6.1 7.505 4 7 C2.68 5.68 1.36 4.36 0 3 C0 2.01 0 1.02 0 0 Z " fill="#000000" transform="translate(38,16)"/>
</svg>
