<?xml version="1.0" encoding="UTF-8"?>
<svg version="1.1" xmlns="http://www.w3.org/2000/svg" width="50" height="50">
<path d="M0 0 C5.56340585 3.36669624 9.53349183 8.25193794 11.5 14.4375 C12.30594257 22.2813829 12.59671889 30.02934467 7.5 36.4375 C3.04867668 41.14197914 -1.19064516 44.09747071 -7.76953125 44.7734375 C-16.0952178 44.86523118 -22.0446237 44.56973912 -28.27734375 38.7890625 C-31.26475881 35.56968345 -33.22507538 32.97375621 -33.5 28.4375 C-31.75 28.5625 -31.75 28.5625 -29.5 29.4375 C-28.63375 30.79875 -28.63375 30.79875 -27.75 32.1875 C-24.8887733 36.32038301 -22.20660387 38.63432059 -17.5 40.4375 C-11.68409804 41.40681699 -6.29906528 41.34780282 -1.0625 38.4375 C3.8813271 34.73220996 6.96350766 30.70482629 7.9765625 24.53515625 C8.31111835 17.553504 7.15865287 12.70545897 2.5 7.4375 C-2.89471115 2.42812537 -7.34680451 2.08728797 -14.484375 2.15625 C-20.00599297 2.67121955 -23.0867943 4.87151531 -26.8125 9 C-28.05905776 10.80058343 -29.28521836 12.61532753 -30.5 14.4375 C-31.49 14.4375 -32.48 14.4375 -33.5 14.4375 C-33.17641481 9.09834444 -30.26679737 5.93110107 -26.5 2.4375 C-19.37374715 -3.21720644 -8.18452207 -3.63581653 0 0 Z " fill="#000000" transform="translate(36.5,3.5625)"/>
<path d="M0 0 C4.62983765 0.84729055 7.29394589 3.22069732 10 7 C10.30572272 10.05722717 9.57315346 11.28610175 7.6796875 13.64453125 C6.17859919 15.25499535 4.78457381 16.70818164 3 18 C2.01 18 1.02 18 0 18 C0.62388892 14.38144425 1.1709277 13.8290723 4 11 C-4.91 10.67 -13.82 10.34 -23 10 C-23 9.34 -23 8.68 -23 8 C-14.09 7.67 -5.18 7.34 4 7 C2.68 5.68 1.36 4.36 0 3 C0 2.01 0 1.02 0 0 Z " fill="#000000" transform="translate(25,16)"/>
</svg>
